<?xml version="1.0" encoding="UTF-8" ?>
<svg version="1.1" width="32" height="32" xmlns="http://www.w3.org/2000/svg" shape-rendering="crispEdges">
<rect x="13" y="6" width="6" height="2" fill="#D9A066" />
<rect x="12" y="7" width="1" height="7" fill="#D9A066" />
<rect x="19" y="7" width="1" height="7" fill="#D9A066" />
<rect x="13" y="8" width="1" height="13" fill="#D9A066" />
<rect x="14" y="8" width="1" height="1" fill="#222034" />
<rect x="15" y="8" width="2" height="4" fill="#D9A066" />
<rect x="17" y="8" width="1" height="1" fill="#222034" />
<rect x="18" y="8" width="1" height="13" fill="#D9A066" />
<rect x="14" y="9" width="1" height="2" fill="#D9A066" />
<rect x="17" y="9" width="1" height="2" fill="#D9A066" />
<rect x="14" y="11" width="1" height="2" fill="#EEC39A" />
<rect x="17" y="11" width="1" height="2" fill="#EEC39A" />
<rect x="15" y="12" width="2" height="1" fill="#EEC39A" />
<rect x="10" y="13" width="2" height="1" fill="#D9A066" />
<rect x="14" y="13" width="4" height="6" fill="#D9A066" />
<rect x="20" y="13" width="2" height="1" fill="#D9A066" />
<rect x="9" y="14" width="2" height="1" fill="#D9A066" />
<rect x="21" y="14" width="2" height="1" fill="#D9A066" />
<rect x="8" y="15" width="2" height="1" fill="#D9A066" />
<rect x="22" y="15" width="2" height="1" fill="#D9A066" />
<rect x="7" y="16" width="2" height="1" fill="#D9A066" />
<rect x="23" y="16" width="2" height="1" fill="#D9A066" />
<rect x="7" y="17" width="1" height="4" fill="#D9A066" />
<rect x="24" y="17" width="1" height="4" fill="#D9A066" />
<rect x="6" y="18" width="1" height="2" fill="#D9A066" />
<rect x="25" y="18" width="1" height="2" fill="#D9A066" />
<rect x="12" y="19" width="1" height="1" fill="#D9A066" />
<rect x="14" y="19" width="1" height="2" fill="#D9A066" />
<rect x="15" y="19" width="2" height="1" fill="#EEC39A" />
<rect x="17" y="19" width="1" height="2" fill="#D9A066" />
<rect x="19" y="19" width="1" height="1" fill="#D9A066" />
<rect x="12" y="20" width="1" height="3" fill="#8F563B" />
<rect x="15" y="20" width="2" height="1" fill="#D9A066" />
<rect x="19" y="20" width="1" height="3" fill="#8F563B" />
<rect x="13" y="21" width="6" height="3" fill="#8F563B" />
<rect x="11" y="23" width="2" height="3" fill="#D9A066" />
<rect x="19" y="23" width="2" height="3" fill="#D9A066" />
<rect x="13" y="24" width="1" height="1" fill="#D9A066" />
<rect x="18" y="24" width="1" height="1" fill="#D9A066" />
<rect x="10" y="25" width="1" height="7" fill="#D9A066" />
<rect x="21" y="25" width="1" height="7" fill="#D9A066" />
<rect x="11" y="26" width="1" height="6" fill="#D9A066" />
<rect x="20" y="26" width="1" height="6" fill="#D9A066" />
<rect x="9" y="27" width="1" height="5" fill="#D9A066" />
<rect x="22" y="27" width="1" height="5" fill="#D9A066" />
<rect x="8" y="31" width="1" height="1" fill="#D9A066" />
<rect x="23" y="31" width="1" height="1" fill="#D9A066" />
</svg>