<?xml version="1.0" encoding="UTF-8" ?>
<svg version="1.1" width="32" height="32" xmlns="http://www.w3.org/2000/svg" shape-rendering="crispEdges">
<rect x="14" y="0" width="4" height="2" fill="#FFFFFF" />
<rect x="13" y="1" width="1" height="5" fill="#FFFFFF" />
<rect x="18" y="1" width="1" height="5" fill="#FFFFFF" />
<rect x="12" y="2" width="1" height="3" fill="#FFFFFF" />
<rect x="14" y="2" width="1" height="28" fill="#FFFFFF" />
<rect x="15" y="2" width="1" height="1" fill="#000000" />
<rect x="16" y="2" width="1" height="2" fill="#FFFFFF" />
<rect x="17" y="2" width="1" height="1" fill="#000000" />
<rect x="19" y="2" width="1" height="3" fill="#FFFFFF" />
<rect x="15" y="3" width="1" height="1" fill="#FFFFFF" />
<rect x="17" y="3" width="1" height="1" fill="#FFFFFF" />
<rect x="15" y="4" width="3" height="1" fill="#000000" />
<rect x="15" y="5" width="3" height="25" fill="#FFFFFF" />
<rect x="13" y="7" width="1" height="23" fill="#FFFFFF" />
<rect x="18" y="7" width="1" height="23" fill="#FFFFFF" />
<rect x="12" y="8" width="1" height="21" fill="#FFFFFF" />
<rect x="19" y="8" width="1" height="21" fill="#FFFFFF" />
<rect x="11" y="9" width="1" height="19" fill="#FFFFFF" />
<rect x="20" y="9" width="1" height="19" fill="#FFFFFF" />
<rect x="10" y="10" width="1" height="17" fill="#FFFFFF" />
<rect x="21" y="10" width="1" height="17" fill="#FFFFFF" />
<rect x="9" y="12" width="1" height="13" fill="#FFFFFF" />
<rect x="22" y="12" width="1" height="13" fill="#FFFFFF" />
<rect x="8" y="14" width="1" height="9" fill="#FFFFFF" />
<rect x="23" y="14" width="1" height="9" fill="#FFFFFF" />
</svg>