<?xml version="1.0" encoding="UTF-8" ?>
<svg version="1.1" width="160" height="80" xmlns="http://www.w3.org/2000/svg" shape-rendering="crispEdges">
<rect x="14" y="0" width="4" height="1" fill="#55733B" />
<rect x="12" y="1" width="2" height="1" fill="#55733B" />
<rect x="14" y="1" width="4" height="14" fill="#4B692F" />
<rect x="18" y="1" width="2" height="1" fill="#55733B" />
<rect x="10" y="2" width="2" height="1" fill="#55733B" />
<rect x="12" y="2" width="2" height="12" fill="#4B692F" />
<rect x="18" y="2" width="2" height="12" fill="#4B692F" />
<rect x="20" y="2" width="2" height="1" fill="#55733B" />
<rect x="8" y="3" width="2" height="1" fill="#55733B" />
<rect x="10" y="3" width="2" height="10" fill="#4B692F" />
<rect x="20" y="3" width="2" height="10" fill="#4B692F" />
<rect x="22" y="3" width="2" height="1" fill="#55733B" />
<rect x="6" y="4" width="2" height="1" fill="#55733B" />
<rect x="8" y="4" width="2" height="8" fill="#4B692F" />
<rect x="22" y="4" width="2" height="8" fill="#4B692F" />
<rect x="24" y="4" width="2" height="1" fill="#55733B" />
<rect x="4" y="5" width="2" height="1" fill="#55733B" />
<rect x="6" y="5" width="2" height="6" fill="#4B692F" />
<rect x="24" y="5" width="2" height="6" fill="#4B692F" />
<rect x="26" y="5" width="2" height="1" fill="#55733B" />
<rect x="2" y="6" width="2" height="1" fill="#55733B" />
<rect x="4" y="6" width="2" height="4" fill="#4B692F" />
<rect x="26" y="6" width="2" height="4" fill="#4B692F" />
<rect x="28" y="6" width="2" height="1" fill="#55733B" />
<rect x="0" y="7" width="2" height="2" fill="#55733B" />
<rect x="2" y="7" width="2" height="2" fill="#4B692F" />
<rect x="28" y="7" width="2" height="2" fill="#4B692F" />
<rect x="30" y="7" width="2" height="2" fill="#55733B" />
<rect x="2" y="9" width="2" height="1" fill="#55733B" />
<rect x="28" y="9" width="2" height="1" fill="#55733B" />
<rect x="4" y="10" width="2" height="1" fill="#55733B" />
<rect x="26" y="10" width="2" height="1" fill="#55733B" />
<rect x="6" y="11" width="2" height="1" fill="#55733B" />
<rect x="24" y="11" width="2" height="1" fill="#55733B" />
<rect x="8" y="12" width="2" height="1" fill="#55733B" />
<rect x="22" y="12" width="2" height="1" fill="#55733B" />
<rect x="10" y="13" width="2" height="1" fill="#55733B" />
<rect x="20" y="13" width="2" height="1" fill="#55733B" />
<rect x="12" y="14" width="2" height="1" fill="#55733B" />
<rect x="18" y="14" width="2" height="1" fill="#55733B" />
<rect x="14" y="15" width="4" height="2" fill="#55733B" />
<rect x="12" y="17" width="2" height="1" fill="#55733B" />
<rect x="14" y="17" width="4" height="14" fill="#4B692F" />
<rect x="18" y="17" width="2" height="1" fill="#55733B" />
<rect x="10" y="18" width="2" height="1" fill="#55733B" />
<rect x="12" y="18" width="2" height="12" fill="#4B692F" />
<rect x="18" y="18" width="2" height="12" fill="#4B692F" />
<rect x="20" y="18" width="2" height="1" fill="#55733B" />
<rect x="8" y="19" width="2" height="1" fill="#55733B" />
<rect x="10" y="19" width="2" height="10" fill="#4B692F" />
<rect x="20" y="19" width="2" height="10" fill="#4B692F" />
<rect x="22" y="19" width="2" height="1" fill="#55733B" />
<rect x="6" y="20" width="2" height="1" fill="#55733B" />
<rect x="8" y="20" width="2" height="8" fill="#4B692F" />
<rect x="22" y="20" width="2" height="8" fill="#4B692F" />
<rect x="24" y="20" width="2" height="1" fill="#55733B" />
<rect x="4" y="21" width="2" height="1" fill="#55733B" />
<rect x="6" y="21" width="2" height="6" fill="#4B692F" />
<rect x="24" y="21" width="2" height="6" fill="#4B692F" />
<rect x="26" y="21" width="2" height="1" fill="#55733B" />
<rect x="2" y="22" width="2" height="1" fill="#55733B" />
<rect x="4" y="22" width="2" height="4" fill="#4B692F" />
<rect x="26" y="22" width="2" height="4" fill="#4B692F" />
<rect x="28" y="22" width="2" height="1" fill="#55733B" />
<rect x="0" y="23" width="2" height="2" fill="#55733B" />
<rect x="2" y="23" width="2" height="2" fill="#4B692F" />
<rect x="28" y="23" width="2" height="2" fill="#4B692F" />
<rect x="30" y="23" width="2" height="2" fill="#55733B" />
<rect x="2" y="25" width="2" height="1" fill="#55733B" />
<rect x="28" y="25" width="2" height="1" fill="#55733B" />
<rect x="4" y="26" width="2" height="1" fill="#55733B" />
<rect x="26" y="26" width="2" height="1" fill="#55733B" />
<rect x="6" y="27" width="2" height="1" fill="#55733B" />
<rect x="24" y="27" width="2" height="1" fill="#55733B" />
<rect x="8" y="28" width="2" height="1" fill="#55733B" />
<rect x="22" y="28" width="2" height="1" fill="#55733B" />
<rect x="10" y="29" width="2" height="1" fill="#55733B" />
<rect x="20" y="29" width="2" height="1" fill="#55733B" />
<rect x="12" y="30" width="2" height="1" fill="#55733B" />
<rect x="18" y="30" width="2" height="1" fill="#55733B" />
<rect x="14" y="31" width="4" height="2" fill="#55733B" />
<rect x="12" y="33" width="2" height="1" fill="#55733B" />
<rect x="14" y="33" width="4" height="14" fill="#4B692F" />
<rect x="18" y="33" width="2" height="1" fill="#55733B" />
<rect x="10" y="34" width="2" height="1" fill="#55733B" />
<rect x="12" y="34" width="2" height="12" fill="#4B692F" />
<rect x="18" y="34" width="2" height="12" fill="#4B692F" />
<rect x="20" y="34" width="2" height="1" fill="#55733B" />
<rect x="8" y="35" width="2" height="1" fill="#55733B" />
<rect x="10" y="35" width="2" height="10" fill="#4B692F" />
<rect x="20" y="35" width="2" height="10" fill="#4B692F" />
<rect x="22" y="35" width="2" height="1" fill="#55733B" />
<rect x="6" y="36" width="2" height="1" fill="#55733B" />
<rect x="8" y="36" width="2" height="8" fill="#4B692F" />
<rect x="22" y="36" width="2" height="8" fill="#4B692F" />
<rect x="24" y="36" width="2" height="1" fill="#55733B" />
<rect x="4" y="37" width="2" height="1" fill="#55733B" />
<rect x="6" y="37" width="2" height="6" fill="#4B692F" />
<rect x="24" y="37" width="2" height="6" fill="#4B692F" />
<rect x="26" y="37" width="2" height="1" fill="#55733B" />
<rect x="2" y="38" width="2" height="1" fill="#55733B" />
<rect x="4" y="38" width="2" height="4" fill="#4B692F" />
<rect x="26" y="38" width="2" height="4" fill="#4B692F" />
<rect x="28" y="38" width="2" height="1" fill="#55733B" />
<rect x="0" y="39" width="2" height="2" fill="#55733B" />
<rect x="2" y="39" width="2" height="2" fill="#4B692F" />
<rect x="28" y="39" width="2" height="2" fill="#4B692F" />
<rect x="30" y="39" width="2" height="2" fill="#55733B" />
<rect x="2" y="41" width="2" height="1" fill="#55733B" />
<rect x="28" y="41" width="2" height="1" fill="#55733B" />
<rect x="4" y="42" width="2" height="1" fill="#55733B" />
<rect x="26" y="42" width="2" height="1" fill="#55733B" />
<rect x="6" y="43" width="2" height="1" fill="#55733B" />
<rect x="24" y="43" width="2" height="1" fill="#55733B" />
<rect x="8" y="44" width="2" height="1" fill="#55733B" />
<rect x="22" y="44" width="2" height="1" fill="#55733B" />
<rect x="10" y="45" width="2" height="1" fill="#55733B" />
<rect x="20" y="45" width="2" height="1" fill="#55733B" />
<rect x="12" y="46" width="2" height="1" fill="#55733B" />
<rect x="18" y="46" width="2" height="1" fill="#55733B" />
<rect x="14" y="47" width="4" height="1" fill="#55733B" />
</svg>